<?xml version="1.0" encoding="UTF-8" standalone="no"?>
<svg
   version="1.1"
   id="Layer_1"
   x="0px"
   y="0px"
   width="555.47827"
   viewBox="0 0 555.47827 322.79321"
   enable-background="new 0 0 609 376"
   xml:space="preserve"
   sodipodi:docname="anteater.svg"
   inkscape:version="1.2.1 (9c6d41e410, 2022-07-14)"
   height="322.79321"
   xmlns:inkscape="http://www.inkscape.org/namespaces/inkscape"
   xmlns:sodipodi="http://sodipodi.sourceforge.net/DTD/sodipodi-0.dtd"
   xmlns="http://www.w3.org/2000/svg"
   xmlns:svg="http://www.w3.org/2000/svg"><defs
   id="defs13" /><sodipodi:namedview
   id="namedview11"
   pagecolor="#ffffff"
   bordercolor="#999999"
   borderopacity="1"
   inkscape:showpageshadow="0"
   inkscape:pageopacity="0"
   inkscape:pagecheckerboard="0"
   inkscape:deskcolor="#d1d1d1"
   showgrid="false"
   inkscape:zoom="1.9868637"
   inkscape:cx="275.30826"
   inkscape:cy="138.40909"
   inkscape:window-width="2560"
   inkscape:window-height="1017"
   inkscape:window-x="1912"
   inkscape:window-y="-8"
   inkscape:window-maximized="1"
   inkscape:current-layer="Layer_1" />

<path
   fill="#999998"
   opacity="1"
   stroke="none"
   d="m 384.08152,8.7894218 c 8.50067,9.1771512 6.76804,18.2746322 -5.08966,26.1870852 -10.37851,6.925377 -21.01712,13.460952 -31.49988,20.142626 6.13147,2.20505 12.87598,4.06485 19.12629,6.98304 19.80304,9.24579 39.4721,18.78355 59.09887,28.40056 26.56412,13.016247 53.00687,26.280127 79.5683,39.301887 15.38098,7.54051 30.89447,14.81046 46.34168,22.216 1.10431,0.52941 2.15393,1.17266 3.85113,2.10459 -12.35583,2.91482 -24.1297,5.07515 -35.52173,8.50401 -26.43054,7.95523 -52.81619,16.1135 -78.93942,25.01309 -13.36151,4.55198 -26.20947,10.67415 -39.13098,16.4419 -26.56656,11.85843 -51.73789,26.2124 -75.63037,42.83246 -17.3645,12.07904 -33.84784,25.30853 -47.69702,41.25195 -9.34763,10.76111 -16.92026,23.06412 -25.24878,34.6246 -1.69214,-5.08886 -3.45874,-11.39959 -5.86554,-17.4559 -7.74195,-19.48129 -15.01465,-39.19519 -23.81029,-58.19827 -8.40375,-18.15637 -17.86098,-35.90424 -28.01952,-53.14563 -9.06671,-15.38834 -21.1306,-28.54122 -37.4394,-36.70969 -10.79277,-5.4057 -22.31572,-9.14149 -34.45517,-10.18426 -10.6743,-0.9169 -21.40889,-2.14708 -32.077119,-1.84328 -11.43274,0.32559 -22.838257,2.12953 -34.220459,3.56692 -12.479836,1.57598 -24.897557,3.65595 -37.387917,5.13024 -4.70248,0.55507 -10.9318855,-3.79413 -12.1075445,-8.39766 -2.933392,-11.48624 -5.84107,-23.01549 -7.81619796,-34.68703 -0.565831,-3.34364 1.10529096,-8.0988 3.42625996,-10.72714 C 16.711503,85.222413 33.720025,75.851443 51.731938,67.948313 c 17.664886,-7.75085 36.034133,-13.16165 54.821422,-17.14456 12.58595,-2.668235 25.2805,-5.019339 38.03764,-6.633803 14.82353,-1.875984 29.74498,-3.289124 44.66693,-3.997101 18.23888,-0.865349 36.56372,-1.696922 54.77507,-0.867592 18.47177,0.841179 36.85837,3.655403 55.26581,5.750313 6.63254,0.754837 13.21716,1.930481 19.9657,2.935234 2.88964,-13.318657 6.95147,-26.07608 15.53006,-37.000122 5.86224,-7.4650082 17.06427,-12.7615472 27.35766,-10.43834715 7.64789,1.72610895 15.40366,2.67748995 21.92929,8.23708695 M 212.16009,106.40937 c 0.21024,1.47803 0.37604,2.96399 0.63777,4.43285 2.04636,11.48414 11.77162,20.60165 23.45746,22.01466 12.00421,1.45149 24.03137,-5.56331 28.53537,-16.64306 4.58661,-11.28301 1.43573,-24.268267 -7.81668,-31.612247 -8.7103,-6.91366 -18.42435,-8.43252 -28.55023,-3.90953 -10.55094,4.71285 -15.67121,13.41734 -16.26369,25.717327 z"
   id="path4" />
<path
   fill="#fcfcfc"
   opacity="1"
   stroke="none"
   d="m 212.1585,105.98333 c 0.59407,-11.873947 5.71434,-20.578437 16.26528,-25.291287 10.12588,-4.52299 19.83993,-3.00413 28.55023,3.90953 9.25241,7.34398 12.40329,20.329237 7.81668,31.612247 -4.504,11.07975 -16.53116,18.09455 -28.53537,16.64306 -11.68584,-1.41301 -21.4111,-10.53052 -23.45746,-22.01466 -0.26173,-1.46886 -0.42753,-2.95482 -0.63936,-4.85889 m 30.60811,14.07489 c 9.94153,-3.27455 14.23871,-11.92337 10.20493,-20.539137 -3.24118,-6.92283 -10.77341,-10.32112 -17.88144,-8.06752 -7.1882,2.27902 -11.59853,9.881957 -10.07692,17.371517 1.5143,7.4536 8.26012,11.98523 17.75343,11.23514 z"
   id="path6" />
<path
   fill="#080a0a"
   opacity="1"
   stroke="none"
   d="m 242.34257,120.11888 c -9.06927,0.68943 -15.81509,-3.8422 -17.32939,-11.2958 -1.52161,-7.48956 2.88872,-15.092497 10.07692,-17.371517 7.10803,-2.2536 14.64026,1.14469 17.88144,8.06752 4.03378,8.615767 -0.2634,17.264587 -10.62897,20.599797 z"
   id="path8" />
</svg>
