<?xml version="1.0" encoding="UTF-8" standalone="no"?>
<svg
   version="1.1"
   id="Layer_1"
   x="0px"
   y="0px"
   width="963.64301"
   viewBox="0 0 963.643 333.31061"
   enable-background="new 0 0 1029 417"
   xml:space="preserve"
   sodipodi:docname="itenewwhite.svg"
   height="333.31061"
   inkscape:version="1.2.1 (9c6d41e410, 2022-07-14)"
   xmlns:inkscape="http://www.inkscape.org/namespaces/inkscape"
   xmlns:sodipodi="http://sodipodi.sourceforge.net/DTD/sodipodi-0.dtd"
   xmlns="http://www.w3.org/2000/svg"
   xmlns:svg="http://www.w3.org/2000/svg"><defs
   id="defs530" /><sodipodi:namedview
   id="namedview528"
   pagecolor="#ffffff"
   bordercolor="#999999"
   borderopacity="1"
   inkscape:showpageshadow="0"
   inkscape:pageopacity="0"
   inkscape:pagecheckerboard="0"
   inkscape:deskcolor="#d1d1d1"
   showgrid="false"
   inkscape:zoom="1.1758989"
   inkscape:cx="490.68843"
   inkscape:cy="173.4843"
   inkscape:window-width="2560"
   inkscape:window-height="1017"
   inkscape:window-x="1912"
   inkscape:window-y="-8"
   inkscape:window-maximized="1"
   inkscape:current-layer="Layer_1" />

<path
   fill="#036992"
   opacity="1"
   stroke="none"
   d="m 350.71699,28.056866 c 27.10049,-10.442257 54.29294,-19.1353179 82.57574,-24.2192269 36.73853,-6.60382 72.70087,-4.992488 108.32788,7.2382469 26.31293,9.033188 50.65094,21.872925 74.90369,35.071114 19.4187,10.567505 39.72498,18.651237 61.60291,22.325536 4.56634,0.76692 9.28668,0.85089 13.93628,0.85337 88.82519,0.0473 177.65045,0.0354 266.47564,0.0357 1.81726,1e-5 3.63459,-10e-6 6.10425,-10e-6 -0.84534,1.26712 -1.29645,2.25696 -2.01709,2.9772 -14.95807,14.95161 -30.02295,29.797524 -44.87067,44.857604 -3.30438,3.35168 -6.73187,4.59089 -11.44201,4.58236 -77.6593,-0.14065 -155.32233,-0.53019 -232.97718,0.0737 -41.52484,0.3229 -79.12274,-10.28136 -114.33923,-32.437644 -26.16418,-16.46103 -53.91132,-30.503899 -83.66531,-39.706749 -22.61487,-6.994751 -45.96051,-9.773476 -69.57578,-8.565765 -29.91534,1.529922 -59.73752,4.302742 -89.24548,9.751281 -0.65375,0.120705 -1.43686,0.434014 -1.95993,0.203812 -1.65421,-0.727989 -3.21344,-1.671776 -4.80939,-2.532082 0.98529,-1.484016 1.63507,-3.725883 3.00818,-4.333732 12.45996,-5.5159 25.04629,-10.746399 37.9675,-16.174645 z"
   id="path509"
   style="fill:#ffffff" />
<path
   fill="#016891"
   opacity="1"
   stroke="none"
   d="m 463.99751,254.79684 c -12.57675,-36.53729 -7.56012,-69.47013 20.18869,-96.74406 20.55239,-20.20071 45.46206,-30.48325 74.90524,-24.8112 25.53259,4.91871 45.43829,19.666 58.13977,37.66617 -3.12567,3.24005 -6.29761,6.58369 -9.52911,9.86869 -21.48883,21.84455 -43.00361,43.66372 -64.44751,65.55214 -1.03083,1.05216 -1.4748,2.67929 -2.19214,4.03864 1.47589,0.61487 2.9057,1.59253 4.43499,1.78647 10.90564,1.38314 16.99872,-4.01056 21.78504,-12.32309 0.68298,-1.18622 2.1167,-2.75745 3.21423,-2.76645 20.28644,-0.16614 40.57453,-0.12174 61.18152,-0.12174 1.16419,13.93494 -3.94067,25.55411 -11.69983,35.88141 -15.37945,20.46973 -35.81213,32.59625 -61.54559,35.49097 -20.32208,2.28601 -39.73035,-0.14749 -57.68976,-10.41776 -17.24948,-9.86431 -28.94113,-24.60021 -36.74554,-43.10019 m 69.58105,-59.51344 c -10.21039,5.78632 -16.77032,18.76364 -13.33362,27.35033 9.46692,-9.96286 18.77576,-19.75932 28.05414,-29.52374 -4.71454,-2.59287 -9.35065,-0.11126 -14.72052,2.17341 z"
   id="path511"
   style="fill:#ffffff" />
<path
   fill="#036992"
   opacity="1"
   stroke="none"
   d="m 190.19233,52.504735 c 7.53931,-11.152176 16.19229,-20.342781 29.37447,-24.079758 11.90977,-3.376274 23.69346,-3.02565 35.41459,0.780647 1.25888,0.408798 2.4968,0.96077 3.64444,1.620316 6.28363,3.611091 6.88346,8.910911 0.86673,12.851814 -8.20407,5.373566 -16.95446,9.905235 -25.29208,15.085236 -6.76695,4.20417 -13.30287,8.785356 -19.86388,13.311506 -1.29071,0.89041 -2.2278,2.29344 -3.724,3.88001 10.89458,-1.5083 21.03894,-3.02166 31.21471,-4.28136 6.26959,-0.77614 12.57962,-1.33597 18.88815,-1.61315 1.66648,-0.0732 3.39484,1.2613 5.09476,1.9494 -0.98212,1.52516 -1.61133,3.80154 -3.00287,4.45523 -10.06979,4.73041 -20.27661,9.17176 -30.47156,13.63261 -44.62352,19.525214 -87.92518,41.572944 -128.33772,68.874184 -22.982064,15.52582 -40.000308,36.49135 -52.040073,61.44853 -1.573921,3.26258 -2.696892,6.79306 -3.622177,10.30652 -1.439583,5.46634 -0.584976,6.87003 5.118767,6.35501 6.756813,-0.61011 13.398575,-2.39923 20.125618,-3.45071 28.632745,-4.4755 57.349945,-8.57739 86.392215,-8.22757 15.42972,0.18585 27.8877,-6.45743 40.35284,-14.03317 19.48761,-11.84365 39.0568,-23.5535 58.63343,-35.24965 2.27182,-1.35732 4.71832,-2.67917 7.25625,-3.24802 1.83738,-0.41183 4.67023,-0.22092 5.75821,0.9305 1.11136,1.17613 1.46186,4.27659 0.68729,5.78672 -1.79242,3.49457 -4.11481,6.87674 -6.84595,9.70151 -9.37951,9.70091 -19.08108,19.08951 -28.54727,28.70795 -4.00113,4.06547 -5.97357,8.9973 -3.51581,14.53139 0.98468,2.21716 2.87595,4.52966 4.96942,5.66934 8.59635,4.67996 16.23487,10.43027 22.43341,18.02905 1.05042,1.28775 2.39634,2.53461 2.88749,4.0354 0.92327,2.82141 1.32257,5.81436 1.93975,8.73593 -2.68167,0.12378 -5.5108,0.8671 -8.02075,0.26954 -14.86493,-3.53901 -29.55642,-7.85956 -44.49661,-11.01639 -18.99402,-4.01337 -38.26773,-4.27759 -57.68091,-3.44648 -36.64097,1.56873 -73.281194,2.9137 -109.310206,10.45301 -11.212539,2.34631 -22.428718,5.15606 -33.199356,8.99804 C 2.5013248,278.10047 -0.91654519,271.49594 0.20178281,262.93402 4.1326678,232.83908 18.396035,207.65773 36.372807,184.07237 51.36263,164.40585 70.725682,149.70268 91.212656,136.51981 114.28722,121.67191 137.956,107.74924 161.26859,93.266796 c 2.43915,-1.51527 4.61998,-3.82292 6.23499,-6.2241 7.62068,-11.33038 15.00258,-22.821355 22.68875,-34.537961 z"
   id="path513"
   style="fill:#ffffff" />
<path
   fill="#016891"
   opacity="1"
   stroke="none"
   d="m 457.80232,286.13916 c 0,15.80624 0,31.11405 0,47.17145 -3.37604,-0.34931 -6.45884,-0.40256 -9.42548,-1.01685 -25.7811,-5.33819 -48.35675,-16.26687 -64.76514,-37.70309 -6.94571,-9.07398 -9.44851,-19.83551 -9.68725,-30.82086 -0.49585,-22.8183 -0.14984,-45.65487 -0.1499,-68.48394 0,-1.81182 2e-5,-3.62364 2e-5,-6.0326 -7.64614,0 -15.02862,0 -22.61227,0 0,-17.20049 0,-33.80365 0,-51.00382 7.38306,0 14.76453,0 22.53229,0 0,-16.35231 0,-32.1165 0,-48.064654 21.24743,-7.25525 42.18976,-14.4063 63.79394,-21.78336 0,23.62523 0,46.373294 0,69.627034 7.33704,0 14.25037,0 21.4069,0 0,17.2331 0,33.95694 0,51.04828 -6.97172,0 -13.74683,0 -21.3028,0 0,2.09583 0,3.83708 0,5.57833 0,20.1629 -3.1e-4,40.32579 6e-5,60.48869 1.8e-4,11.0874 5.12314,16.37195 16.30707,16.80426 1.13995,0.0441 2.28305,0.006 3.90256,0.006 0,4.76025 0,9.22351 0,14.18521 z"
   id="path515"
   style="fill:#ffffff" />
<path
   fill="#026892"
   opacity="1"
   stroke="none"
   d="m 867.03571,176.36629 c -11.49609,11.1307 -22.7832,21.96986 -33.92028,32.96116 -2.54468,2.51143 -5.15278,3.51885 -8.78644,3.51117 -56.6557,-0.11981 -113.31183,-0.13878 -169.96741,0.0162 -4.73621,0.0129 -6.2641,-1.17949 -6.18042,-6.06729 0.29053,-16.97319 0.11218,-33.95441 0.11218,-51.29384 80.00415,0 159.70478,0 238.33301,0 -6.05249,6.46243 -12.68988,13.54936 -19.59064,20.87259 z"
   id="path517"
   style="fill:#ffffff" />
<path
   fill="#006791"
   opacity="1"
   stroke="none"
   d="m 283.50501,253.13315 c -6e-5,-38.4534 -6e-5,-76.40682 -6e-5,-114.69632 20.40366,0 40.60773,0 61.05499,0 0,55.10458 0,110.14395 0,165.55835 -20.15753,0 -40.32861,0 -61.0549,0 0,-16.84351 0,-33.60275 -3e-5,-50.86203 z"
   id="path519"
   style="fill:#ffffff" />
<path
   fill="#016892"
   opacity="1"
   stroke="none"
   d="m 661.90821,245.2178 c 47.3747,-3e-5 94.26203,-3e-5 139.58191,-3e-5 -8.60907,9.26102 -17.55225,19.26596 -26.92328,28.85279 -9.18689,9.3985 -18.74206,18.44278 -28.30859,27.45892 -1.52948,1.44144 -3.96332,2.71835 -5.98419,2.72601 -40.4729,0.15369 -80.94654,0.11075 -121.41999,0.0942 -0.45282,-1.8e-4 -0.90551,-0.17526 -1.81689,-0.36337 20.47302,-14.53412 34.42725,-32.98023 38.54687,-58.76846 1.62738,0 3.73212,0 6.32416,-4e-5 z"
   id="path521"
   style="fill:#ffffff" />
<path
   fill="#036992"
   opacity="1"
   stroke="none"
   d="m 283.49757,88.133396 c -3e-5,-6.80041 -3e-5,-13.10092 -3e-5,-19.73128 20.85711,0 41.24865,0 61.95791,0 0,17.5082 0,35.077434 0,52.962324 -20.35763,0 -40.76379,0 -61.95785,0 0,-10.92985 0,-21.830494 -3e-5,-33.231044 z"
   id="path523"
   style="fill:#ffffff" />

</svg>
