<svg version="1.1" id="Layer_1" xmlns="http://www.w3.org/2000/svg" xmlns:xlink="http://www.w3.org/1999/xlink" x="0px" y="0px"
	 width="100%" viewBox="0 0 1029 417" enable-background="new 0 0 1029 417" xml:space="preserve">
<path fill="#FEFFFF" opacity="1.000000" stroke="none" 
	d="
M787.000000,418.000000 
	C524.666687,418.000000 262.833344,418.000000 1.000000,418.000000 
	C1.000000,279.000000 1.000000,140.000000 1.000000,1.000000 
	C344.000000,1.000000 687.000000,1.000000 1030.000000,1.000000 
	C1030.000000,140.000000 1030.000000,279.000000 1030.000000,418.000000 
	C949.166687,418.000000 868.333313,418.000000 787.000000,418.000000 
M374.542542,63.037868 
	C361.993225,68.351906 349.406891,73.582405 336.946930,79.098305 
	C335.573822,79.706154 334.924042,81.948021 333.938751,83.432030 
	C335.534698,84.292343 337.093933,85.236130 338.748138,85.964119 
	C339.271210,86.194321 340.054321,85.881012 340.708069,85.760307 
	C370.216034,80.311768 400.038208,77.538948 429.953552,76.009026 
	C453.568817,74.801315 476.914459,77.580040 499.529327,84.574791 
	C529.283325,93.777641 557.030457,107.820511 583.194641,124.281540 
	C618.411133,146.437820 656.009033,157.042084 697.533875,156.719177 
	C775.188721,156.115326 852.851746,156.504868 930.511047,156.645523 
	C935.221191,156.654053 938.648682,155.414841 941.953064,152.063156 
	C956.800781,137.003082 971.865662,122.157166 986.823730,107.205559 
	C987.544373,106.485321 987.995483,105.495483 988.840820,104.228363 
	C986.371155,104.228363 984.553833,104.228378 982.736572,104.228371 
	C893.911377,104.228065 805.086121,104.240051 716.260925,104.192696 
	C711.611328,104.190216 706.890991,104.106247 702.324646,103.339333 
	C680.446716,99.665031 660.140442,91.581299 640.721741,81.013794 
	C616.468994,67.815605 592.130981,54.975868 565.818054,45.942680 
	C530.191040,33.711945 494.228699,32.100613 457.490173,38.704433 
	C429.207367,43.788342 402.014923,52.481403 374.542542,63.037868 
M488.370941,290.010223 
	C495.999359,308.163605 507.691010,322.899506 524.940491,332.763824 
	C542.899902,343.034088 562.308167,345.467590 582.630249,343.181580 
	C608.363708,340.286865 628.796387,328.160339 644.175842,307.690613 
	C651.934998,297.363312 657.039856,285.744141 655.875671,271.809204 
	C635.268677,271.809204 614.980591,271.764801 594.694153,271.930939 
	C593.596619,271.939941 592.162903,273.511169 591.479919,274.697388 
	C586.693604,283.009918 580.600525,288.403625 569.694885,287.020477 
	C568.165588,286.826538 566.735779,285.848877 565.259949,285.234039 
	C565.977234,283.874664 566.421204,282.247528 567.452026,281.195374 
	C588.895935,259.306946 610.410706,237.487778 631.899536,215.643234 
	C635.131042,212.358231 638.302979,209.014587 641.428650,205.774536 
	C628.727173,187.774368 608.821472,173.027084 583.288879,168.108368 
	C553.845703,162.436325 528.936035,172.718857 508.383636,192.919571 
	C480.634827,220.193497 475.618195,253.126343 488.370941,290.010223 
M214.170654,87.654434 
	C206.703598,99.088135 199.321701,110.579109 191.701019,121.909485 
	C190.086014,124.310669 187.905182,126.618324 185.466034,128.133591 
	C162.153442,142.616028 138.484665,156.538696 115.410103,171.386597 
	C94.923126,184.569473 75.560074,199.272644 60.570251,218.939163 
	C42.593479,242.524521 28.330112,267.705872 24.399227,297.800812 
	C23.280899,306.362732 26.698769,312.967255 37.471092,309.124664 
	C48.241730,305.282684 59.457909,302.472931 70.670448,300.126617 
	C106.699455,292.587311 143.339676,291.242340 179.980652,289.673615 
	C199.393829,288.842499 218.667542,289.106720 237.661560,293.120087 
	C252.601746,296.276917 267.293243,300.597473 282.158173,304.136475 
	C284.668121,304.734039 287.497253,303.990723 290.178925,303.866974 
	C289.561737,300.945374 289.162445,297.952423 288.239166,295.131012 
	C287.748016,293.630219 286.402100,292.383362 285.351685,291.095612 
	C279.153137,283.496826 271.514618,277.746521 262.918274,273.066559 
	C260.824799,271.926880 258.933533,269.614380 257.948853,267.397217 
	C255.491089,261.863129 257.463531,256.931305 261.464661,252.865829 
	C270.930847,243.247391 280.632416,233.858795 290.011932,224.157883 
	C292.743073,221.333115 295.065460,217.950943 296.857880,214.456375 
	C297.632446,212.946243 297.281952,209.845779 296.170593,208.669647 
	C295.082611,207.518234 292.249756,207.327316 290.412384,207.739151 
	C287.874451,208.307999 285.427948,209.629852 283.156128,210.987167 
	C263.579498,222.683319 244.010315,234.393173 224.522705,246.236816 
	C212.057556,253.812561 199.599579,260.455841 184.169861,260.269989 
	C155.127594,259.920166 126.410385,264.022064 97.777649,268.497559 
	C91.050606,269.549042 84.408844,271.338165 77.652031,271.948273 
	C71.948288,272.463287 71.093681,271.059601 72.533264,265.593262 
	C73.458549,262.079803 74.581520,258.549316 76.155441,255.286743 
	C88.195206,230.329559 105.213455,209.364029 128.195511,193.838211 
	C168.608047,166.536972 211.909714,144.489243 256.533234,124.964035 
	C266.728180,120.503181 276.934998,116.061829 287.004791,111.331421 
	C288.396332,110.677734 289.025543,108.401352 290.007660,106.876190 
	C288.307739,106.188087 286.579376,104.853577 284.912903,104.926788 
	C278.604370,105.203972 272.294342,105.763802 266.024750,106.539940 
	C255.848984,107.799644 245.704620,109.312996 234.810043,110.821304 
	C236.306244,109.234734 237.243332,107.831703 238.534042,106.941292 
	C245.095047,102.415138 251.630966,97.833954 258.397919,93.629784 
	C266.735535,88.449783 275.485931,83.918114 283.690002,78.544548 
	C289.706726,74.603645 289.106903,69.303825 282.823273,65.692734 
	C281.675629,65.033188 280.437714,64.481216 279.178833,64.072418 
	C267.457703,60.266121 255.674011,59.915497 243.764236,63.291771 
	C230.582062,67.028748 221.929077,76.219353 214.170654,87.654434 
M481.999756,320.507507 
	C481.999756,316.044250 481.999756,311.580994 481.999756,306.820740 
	C480.380249,306.820740 479.237152,306.858887 478.097198,306.814819 
	C466.913269,306.382507 461.790314,301.097961 461.790131,290.010559 
	C461.789764,269.847656 461.790070,249.684769 461.790070,229.521866 
	C461.790070,227.780624 461.790070,226.039368 461.790070,223.943542 
	C469.346039,223.943542 476.121155,223.943542 483.092865,223.943542 
	C483.092865,206.852203 483.092865,190.128357 483.092865,172.895264 
	C475.936340,172.895264 469.023010,172.895264 461.685974,172.895264 
	C461.685974,149.641525 461.685974,126.893456 461.685974,103.268227 
	C440.081787,110.645287 419.139465,117.796341 397.892029,125.051590 
	C397.892029,140.999741 397.892029,156.763931 397.892029,173.116241 
	C390.124268,173.116241 382.742798,173.116241 375.359741,173.116241 
	C375.359741,190.316406 375.359741,206.919571 375.359741,224.120056 
	C382.943390,224.120056 390.325867,224.120056 397.972015,224.120056 
	C397.972015,226.529022 397.971985,228.340836 397.971985,230.152664 
	C397.972046,252.981735 397.626038,275.818298 398.121887,298.636597 
	C398.360626,309.621948 400.863434,320.383484 407.809143,329.457458 
	C424.217529,350.893677 446.793182,361.822357 472.574280,367.160553 
	C475.540924,367.774841 478.623718,367.828094 481.999756,368.177399 
	C481.999756,352.119995 481.999756,336.812195 481.999756,320.507507 
M891.496582,210.996765 
	C898.133911,203.909851 904.771301,196.822922 910.823792,190.360489 
	C832.195557,190.360489 752.494934,190.360489 672.490784,190.360489 
	C672.490784,207.699921 672.669128,224.681137 672.378601,241.654327 
	C672.294922,246.542130 673.822815,247.734558 678.559021,247.721619 
	C735.214600,247.566635 791.870728,247.585602 848.526428,247.705414 
	C852.160095,247.713089 854.768188,246.705673 857.312866,244.194244 
	C868.449951,233.202942 879.737061,222.363785 891.496582,210.996765 
M307.702484,288.499939 
	C307.702484,305.259216 307.702484,322.018463 307.702484,338.861969 
	C328.428772,338.861969 348.599854,338.861969 368.757385,338.861969 
	C368.757385,283.447571 368.757385,228.408203 368.757385,173.303619 
	C348.310120,173.303619 328.106049,173.303619 307.702393,173.303619 
	C307.702393,211.593124 307.702393,249.546539 307.702484,288.499939 
M685.618286,280.084625 
	C683.513611,280.084625 681.408875,280.084625 679.781494,280.084625 
	C675.661865,305.872864 661.707642,324.318970 641.234619,338.853088 
	C642.145996,339.041199 642.598694,339.216278 643.051514,339.216461 
	C683.524963,339.233032 723.998596,339.275970 764.471497,339.122284 
	C766.492371,339.114624 768.926208,337.837708 770.455688,336.396271 
	C780.022217,327.380127 789.577393,318.335846 798.764282,308.937347 
	C808.135315,299.350525 817.078491,289.345581 825.687561,280.084564 
	C780.367676,280.084564 733.480347,280.084564 685.618286,280.084625 
M307.695038,123.500092 
	C307.695038,134.400742 307.695038,145.301376 307.695038,156.231232 
	C328.889099,156.231232 349.295258,156.231232 369.652893,156.231232 
	C369.652893,138.346344 369.652893,120.777115 369.652893,103.268906 
	C348.943634,103.268906 328.552094,103.268906 307.694977,103.268906 
	C307.694977,109.899269 307.694977,116.199776 307.695038,123.500092 
z"/>
<path fill="#036992" opacity="1.000000" stroke="none" 
	d="
M374.914429,62.923660 
	C402.014923,52.481403 429.207367,43.788342 457.490173,38.704433 
	C494.228699,32.100613 530.191040,33.711945 565.818054,45.942680 
	C592.130981,54.975868 616.468994,67.815605 640.721741,81.013794 
	C660.140442,91.581299 680.446716,99.665031 702.324646,103.339333 
	C706.890991,104.106247 711.611328,104.190216 716.260925,104.192696 
	C805.086121,104.240051 893.911377,104.228065 982.736572,104.228371 
	C984.553833,104.228378 986.371155,104.228363 988.840820,104.228363 
	C987.995483,105.495483 987.544373,106.485321 986.823730,107.205559 
	C971.865662,122.157166 956.800781,137.003082 941.953064,152.063156 
	C938.648682,155.414841 935.221191,156.654053 930.511047,156.645523 
	C852.851746,156.504868 775.188721,156.115326 697.533875,156.719177 
	C656.009033,157.042084 618.411133,146.437820 583.194641,124.281540 
	C557.030457,107.820511 529.283325,93.777641 499.529327,84.574791 
	C476.914459,77.580040 453.568817,74.801315 429.953552,76.009026 
	C400.038208,77.538948 370.216034,80.311768 340.708069,85.760307 
	C340.054321,85.881012 339.271210,86.194321 338.748138,85.964119 
	C337.093933,85.236130 335.534698,84.292343 333.938751,83.432037 
	C334.924042,81.948021 335.573822,79.706154 336.946930,79.098305 
	C349.406891,73.582405 361.993225,68.351906 374.914429,62.923660 
z"/>
<path fill="#016891" opacity="1.000000" stroke="none" 
	d="
M488.194946,289.663635 
	C475.618195,253.126343 480.634827,220.193497 508.383636,192.919571 
	C528.936035,172.718857 553.845703,162.436325 583.288879,168.108368 
	C608.821472,173.027084 628.727173,187.774368 641.428650,205.774536 
	C638.302979,209.014587 635.131042,212.358231 631.899536,215.643234 
	C610.410706,237.487778 588.895935,259.306946 567.452026,281.195374 
	C566.421204,282.247528 565.977234,283.874664 565.259888,285.234009 
	C566.735779,285.848877 568.165588,286.826538 569.694885,287.020477 
	C580.600525,288.403625 586.693604,283.009918 591.479919,274.697388 
	C592.162903,273.511169 593.596619,271.939941 594.694153,271.930939 
	C614.980591,271.764801 635.268677,271.809204 655.875671,271.809204 
	C657.039856,285.744141 651.934998,297.363312 644.175842,307.690613 
	C628.796387,328.160339 608.363708,340.286865 582.630249,343.181580 
	C562.308167,345.467590 542.899902,343.034088 524.940491,332.763824 
	C507.691010,322.899506 495.999359,308.163605 488.194946,289.663635 
M557.776001,230.150192 
	C547.565613,235.936508 541.005676,248.913834 544.442383,257.500519 
	C553.909302,247.537659 563.218140,237.741196 572.496521,227.976776 
	C567.781982,225.383911 563.145874,227.865524 557.776001,230.150192 
z"/>
<path fill="#036992" opacity="1.000000" stroke="none" 
	d="
M214.389771,87.371529 
	C221.929077,76.219353 230.582062,67.028748 243.764236,63.291771 
	C255.674011,59.915497 267.457703,60.266121 279.178833,64.072418 
	C280.437714,64.481216 281.675629,65.033188 282.823273,65.692734 
	C289.106903,69.303825 289.706726,74.603645 283.690002,78.544548 
	C275.485931,83.918114 266.735535,88.449783 258.397919,93.629784 
	C251.630966,97.833954 245.095047,102.415138 238.534042,106.941292 
	C237.243332,107.831703 236.306244,109.234734 234.810043,110.821304 
	C245.704620,109.312996 255.848984,107.799644 266.024750,106.539940 
	C272.294342,105.763802 278.604370,105.203972 284.912903,104.926788 
	C286.579376,104.853577 288.307739,106.188087 290.007660,106.876190 
	C289.025543,108.401352 288.396332,110.677734 287.004791,111.331421 
	C276.934998,116.061829 266.728180,120.503181 256.533234,124.964035 
	C211.909714,144.489243 168.608047,166.536972 128.195511,193.838211 
	C105.213455,209.364029 88.195206,230.329559 76.155441,255.286743 
	C74.581520,258.549316 73.458549,262.079803 72.533264,265.593262 
	C71.093681,271.059601 71.948288,272.463287 77.652031,271.948273 
	C84.408844,271.338165 91.050606,269.549042 97.777649,268.497559 
	C126.410385,264.022064 155.127594,259.920166 184.169861,260.269989 
	C199.599579,260.455841 212.057556,253.812561 224.522705,246.236816 
	C244.010315,234.393173 263.579498,222.683319 283.156128,210.987167 
	C285.427948,209.629852 287.874451,208.307999 290.412384,207.739151 
	C292.249756,207.327316 295.082611,207.518234 296.170593,208.669647 
	C297.281952,209.845779 297.632446,212.946243 296.857880,214.456375 
	C295.065460,217.950943 292.743073,221.333115 290.011932,224.157883 
	C280.632416,233.858795 270.930847,243.247391 261.464661,252.865829 
	C257.463531,256.931305 255.491089,261.863129 257.948853,267.397217 
	C258.933533,269.614380 260.824799,271.926880 262.918274,273.066559 
	C271.514618,277.746521 279.153137,283.496826 285.351685,291.095612 
	C286.402100,292.383362 287.748016,293.630219 288.239166,295.131012 
	C289.162445,297.952423 289.561737,300.945374 290.178925,303.866943 
	C287.497253,303.990723 284.668121,304.734039 282.158173,304.136475 
	C267.293243,300.597473 252.601746,296.276917 237.661560,293.120087 
	C218.667542,289.106720 199.393829,288.842499 179.980652,289.673615 
	C143.339676,291.242340 106.699455,292.587311 70.670448,300.126617 
	C59.457909,302.472931 48.241730,305.282684 37.471092,309.124664 
	C26.698769,312.967255 23.280899,306.362732 24.399227,297.800812 
	C28.330112,267.705872 42.593479,242.524521 60.570251,218.939163 
	C75.560074,199.272644 94.923126,184.569473 115.410103,171.386597 
	C138.484665,156.538696 162.153442,142.616028 185.466034,128.133591 
	C187.905182,126.618324 190.086014,124.310669 191.701019,121.909485 
	C199.321701,110.579109 206.703598,99.088135 214.389771,87.371529 
z"/>
<path fill="#016891" opacity="1.000000" stroke="none" 
	d="
M481.999756,321.005951 
	C481.999756,336.812195 481.999756,352.119995 481.999756,368.177399 
	C478.623718,367.828094 475.540924,367.774841 472.574280,367.160553 
	C446.793182,361.822357 424.217529,350.893677 407.809143,329.457458 
	C400.863434,320.383484 398.360626,309.621948 398.121887,298.636597 
	C397.626038,275.818298 397.972046,252.981735 397.971985,230.152664 
	C397.971985,228.340836 397.972015,226.529022 397.972015,224.120056 
	C390.325867,224.120056 382.943390,224.120056 375.359741,224.120056 
	C375.359741,206.919571 375.359741,190.316406 375.359741,173.116241 
	C382.742798,173.116241 390.124268,173.116241 397.892029,173.116241 
	C397.892029,156.763931 397.892029,140.999741 397.892029,125.051590 
	C419.139465,117.796341 440.081787,110.645287 461.685974,103.268227 
	C461.685974,126.893456 461.685974,149.641525 461.685974,172.895264 
	C469.023010,172.895264 475.936340,172.895264 483.092865,172.895264 
	C483.092865,190.128357 483.092865,206.852203 483.092865,223.943542 
	C476.121155,223.943542 469.346039,223.943542 461.790070,223.943542 
	C461.790070,226.039368 461.790070,227.780624 461.790070,229.521866 
	C461.790070,249.684769 461.789764,269.847656 461.790131,290.010559 
	C461.790314,301.097961 466.913269,306.382507 478.097198,306.814819 
	C479.237152,306.858887 480.380249,306.820740 481.999756,306.820740 
	C481.999756,311.580994 481.999756,316.044250 481.999756,321.005951 
z"/>
<path fill="#026892" opacity="1.000000" stroke="none" 
	d="
M891.233154,211.233078 
	C879.737061,222.363785 868.449951,233.202942 857.312866,244.194244 
	C854.768188,246.705673 852.160095,247.713089 848.526428,247.705414 
	C791.870728,247.585602 735.214600,247.566635 678.559021,247.721619 
	C673.822815,247.734558 672.294922,246.542130 672.378601,241.654327 
	C672.669128,224.681137 672.490784,207.699921 672.490784,190.360489 
	C752.494934,190.360489 832.195557,190.360489 910.823792,190.360489 
	C904.771301,196.822922 898.133911,203.909851 891.233154,211.233078 
z"/>
<path fill="#006791" opacity="1.000000" stroke="none" 
	d="
M307.702454,287.999939 
	C307.702393,249.546539 307.702393,211.593124 307.702393,173.303619 
	C328.106049,173.303619 348.310120,173.303619 368.757385,173.303619 
	C368.757385,228.408203 368.757385,283.447571 368.757385,338.861969 
	C348.599854,338.861969 328.428772,338.861969 307.702484,338.861969 
	C307.702484,322.018463 307.702484,305.259216 307.702454,287.999939 
z"/>
<path fill="#016892" opacity="1.000000" stroke="none" 
	d="
M686.105652,280.084595 
	C733.480347,280.084564 780.367676,280.084564 825.687561,280.084564 
	C817.078491,289.345581 808.135315,299.350525 798.764282,308.937347 
	C789.577393,318.335846 780.022217,327.380127 770.455688,336.396271 
	C768.926208,337.837708 766.492371,339.114624 764.471497,339.122284 
	C723.998596,339.275970 683.524963,339.233032 643.051514,339.216461 
	C642.598694,339.216278 642.145996,339.041199 641.234619,338.853088 
	C661.707642,324.318970 675.661865,305.872864 679.781494,280.084625 
	C681.408875,280.084625 683.513611,280.084625 686.105652,280.084595 
z"/>
<path fill="#036992" opacity="1.000000" stroke="none" 
	d="
M307.695007,123.000191 
	C307.694977,116.199776 307.694977,109.899269 307.694977,103.268906 
	C328.552094,103.268906 348.943634,103.268906 369.652893,103.268906 
	C369.652893,120.777115 369.652893,138.346344 369.652893,156.231232 
	C349.295258,156.231232 328.889099,156.231232 307.695038,156.231232 
	C307.695038,145.301376 307.695038,134.400742 307.695007,123.000191 
z"/>
<path fill="#F5F9FB" opacity="1.000000" stroke="none" 
	d="
M558.116699,229.984558 
	C563.145874,227.865524 567.781982,225.383911 572.496521,227.976776 
	C563.218140,237.741196 553.909302,247.537659 544.442383,257.500519 
	C541.005676,248.913834 547.565613,235.936508 558.116699,229.984558 
z"/>
</svg>