<?xml version="1.0" encoding="UTF-8" standalone="no"?>
<svg
   version="1.1"
   width="877.06262"
   height="740.06512"
   style="clip-rule:evenodd;fill-rule:evenodd;image-rendering:optimizeQuality;shape-rendering:geometricPrecision;text-rendering:geometricPrecision"
   id="svg150"
   sodipodi:docname="uciitelogo.svg"
   inkscape:version="1.2.1 (9c6d41e410, 2022-07-14)"
   xmlns:inkscape="http://www.inkscape.org/namespaces/inkscape"
   xmlns:sodipodi="http://sodipodi.sourceforge.net/DTD/sodipodi-0.dtd"
   xmlns="http://www.w3.org/2000/svg"
   xmlns:svg="http://www.w3.org/2000/svg">
  <defs
     id="defs154" />
  <sodipodi:namedview
     id="namedview152"
     pagecolor="#ffffff"
     bordercolor="#999999"
     borderopacity="1"
     inkscape:showpageshadow="0"
     inkscape:pageopacity="0"
     inkscape:pagecheckerboard="0"
     inkscape:deskcolor="#d1d1d1"
     showgrid="false"
     inkscape:zoom="0.59446023"
     inkscape:cx="440.73596"
     inkscape:cy="370.08363"
     inkscape:window-width="2560"
     inkscape:window-height="1017"
     inkscape:window-x="1912"
     inkscape:window-y="-8"
     inkscape:window-maximized="1"
     inkscape:current-layer="svg150" />
  <g
     id="g4"
     transform="translate(-360.43736,-335.43736)">
    <path
       style="opacity:0.957"
       fill="#0e5782"
       d="m 757.5,335.5 c 14.67,-0.167 29.337,0 44,0.5 4.655,2.897 6.155,7.063 4.5,12.5 -0.5,1.833 -1.667,3 -3.5,3.5 -20.32,1.29 -40.654,1.624 -61,1 -6.05,-6.748 -5.05,-12.081 3,-16 4.519,-0.175 8.853,-0.675 13,-1.5 z"
       id="path2" />
  </g>
  <g
     id="g8"
     transform="translate(-360.43736,-335.43736)">
    <path
       style="opacity:0.935"
       fill="#0e5782"
       d="m 847.5,341.5 c 18.668,3.084 37.001,7.584 55,13.5 7.439,5.211 7.773,10.878 1,17 -1.167,0.167 -2.333,0.333 -3.5,0.5 -18.009,-5.377 -36.176,-10.211 -54.5,-14.5 -4.805,-3.089 -5.972,-7.256 -3.5,-12.5 1.5,-1.969 3.333,-3.302 5.5,-4 z"
       id="path6" />
  </g>
  <g
     id="g12"
     transform="translate(-360.43736,-335.43736)">
    <path
       style="opacity:0.936"
       fill="#0e5782"
       d="m 692.5,344.5 c 8.474,-0.361 12.307,3.639 11.5,12 -1.122,2.124 -2.622,3.957 -4.5,5.5 -17.172,4.724 -34.172,10.057 -51,16 -6.977,1.528 -10.643,-1.305 -11,-8.5 -0.096,-2.426 0.57,-4.593 2,-6.5 17.523,-6.895 35.19,-13.062 53,-18.5 z"
       id="path10" />
  </g>
  <g
     id="g16"
     transform="translate(-360.43736,-335.43736)">
    <path
       style="opacity:0.936"
       fill="#0e5782"
       d="m 943.5,375.5 c 4.292,-0.465 8.292,0.368 12,2.5 13.599,7.938 26.933,16.271 40,25 6.17,4.985 6.5,10.318 1,16 -3.365,1.797 -6.698,1.797 -10,0 -14.496,-10.085 -29.496,-19.418 -45,-28 -2.818,-3.338 -3.651,-7.171 -2.5,-11.5 1.667,-1.233 3.167,-2.567 4.5,-4 z"
       id="path14" />
  </g>
  <g
     id="g20"
     transform="translate(-360.43736,-335.43736)">
    <path
       style="opacity:0.926"
       fill="#0e5782"
       d="m 597.5,383.5 c 8.905,0.817 12.072,5.483 9.5,14 -8.245,5.874 -16.745,11.374 -25.5,16.5 -10.553,1.074 -14.053,-3.426 -10.5,-13.5 8.492,-6.349 17.325,-12.016 26.5,-17 z"
       id="path18" />
  </g>
  <g
     id="g24"
     transform="translate(-360.43736,-335.43736)">
    <path
       style="opacity:0.969"
       fill="#fad30a"
       d="m 666.5,394.5 c 12.891,-2.203 23.725,1.463 32.5,11 9.507,15.775 7.341,29.942 -6.5,42.5 -16.2,8.824 -30.7,6.658 -43.5,-6.5 -10.905,-22.155 -5.071,-37.822 17.5,-47 z"
       id="path22" />
  </g>
  <g
     id="g28"
     transform="translate(-360.43736,-335.43736)">
    <path
       style="opacity:0.931"
       fill="#0e5782"
       d="m 1028.5,435.5 c 2.77,-0.079 5.44,0.421 8,1.5 12.2,12.533 24.03,25.366 35.5,38.5 5.57,11.418 2.07,16.585 -10.5,15.5 -11.06,-14.068 -23.23,-27.235 -36.5,-39.5 -3.86,-6.565 -2.69,-11.898 3.5,-16 z"
       id="path26" />
  </g>
  <g
     id="g32"
     transform="translate(-360.43736,-335.43736)">
    <path
       style="opacity:0.976"
       fill="#fad30a"
       d="m 585.5,464.5 c 15.488,-0.74 30.488,1.593 45,7 0.333,0.5 0.667,1 1,1.5 -2.713,14.109 -5.046,28.276 -7,42.5 -8.449,-3.647 -17.282,-5.98 -26.5,-7 -23.128,2.264 -33.461,14.93 -31,38 7.329,18.254 20.829,25.42 40.5,21.5 6.256,-1.474 12.256,-3.641 18,-6.5 2.701,13.904 5.035,27.904 7,42 -0.333,0.667 -0.667,1.333 -1,2 -32.98,13.692 -63.647,9.858 -92,-11.5 -24.367,-25.507 -29.867,-54.673 -16.5,-87.5 13.758,-24.601 34.591,-38.601 62.5,-42 z"
       id="path30" />
  </g>
  <g
     id="g36"
     transform="translate(-360.43736,-335.43736)">
    <path
       style="opacity:0.991"
       fill="#fad30a"
       d="m 406.5,466.5 c 2,0 4,0 6,0 -0.167,28.335 0,56.669 0.5,85 2.071,12.121 9.238,17.621 21.5,16.5 8.386,-2.386 13.22,-7.886 14.5,-16.5 0.5,-26.665 0.667,-53.331 0.5,-80 17.347,-1.535 34.68,-3.201 52,-5 0,47.333 0,94.667 0,142 -17,0 -34,0 -51,0 0.165,-3.35 -0.002,-6.683 -0.5,-10 -14.653,12.207 -31.486,16.707 -50.5,13.5 -23.015,-5.355 -35.848,-19.855 -38.5,-43.5 -0.5,-32.332 -0.667,-64.665 -0.5,-97 15.521,-1.243 30.855,-2.91 46,-5 z"
       id="path34" />
  </g>
  <g
     id="g40"
     transform="translate(-360.43736,-335.43736)">
    <path
       style="opacity:0.973"
       fill="#fad30a"
       d="m 693.5,466.5 c 2.333,0 4.667,0 7,0 0,47.333 0,94.667 0,142 -17.667,0 -35.333,0 -53,0 0,-45.667 0,-91.333 0,-137 15.531,-1.152 30.864,-2.819 46,-5 z"
       id="path38" />
  </g>
  <g
     id="g44"
     transform="translate(-360.43736,-335.43736)">
    <path
       style="opacity:0.94"
       fill="#0e5782"
       d="m 1089.5,517.5 c 5.27,-0.929 9.77,0.404 13.5,4 7.91,15.317 15.41,30.817 22.5,46.5 2.3,7.799 -0.54,12.299 -8.5,13.5 -2.26,0.061 -4.26,-0.606 -6,-2 -6.48,-16.806 -14.48,-32.806 -24,-48 -1.75,-5.02 -0.92,-9.687 2.5,-14 z"
       id="path42" />
  </g>
  <g
     id="g48"
     transform="translate(-360.43736,-335.43736)">
    <path
       style="opacity:0.99"
       fill="#999998"
       d="m 837.5,576.5 c 10.084,-0.32 19.751,1.514 29,5.5 12.991,9.643 12.991,19.31 0,29 -10.501,7.42 -21.501,14.087 -33,20 11.861,4.067 23.527,8.734 35,14 57.484,28.987 115.151,57.487 173,85.5 -66.726,13.629 -130.059,36.462 -190,68.5 -34.897,18.887 -65.73,43.053 -92.5,72.5 -7.188,8.871 -13.188,18.537 -18,29 -12.929,-38.109 -28.596,-75.109 -47,-111 -8.851,-16.854 -20.017,-32.02 -33.5,-45.5 -18.888,-14.075 -40.221,-21.408 -64,-22 -27.31,-0.632 -54.31,2.034 -81,8 -11.734,3.22 -19.234,-0.947 -22.5,-12.5 -3.428,-11.468 -5.428,-23.135 -6,-35 3.001,-6.012 7.167,-11.178 12.5,-15.5 20.269,-14.967 42.603,-25.967 67,-33 79.273,-21.014 159.273,-24.181 240,-9.5 1.882,-15.926 8.215,-29.76 19,-41.5 3.7,-2.902 7.7,-5.068 12,-6.5 z"
       id="path46" />
  </g>
  <g
     id="g52"
     transform="translate(-360.43736,-335.43736)">
    <path
       style="opacity:0.94"
       fill="#0e5782"
       d="m 1129.5,613.5 c 3.81,-0.48 7.14,0.52 10,3 5.99,19.916 9.15,40.249 9.5,61 -0.5,1.833 -1.67,3 -3.5,3.5 -6.23,2.006 -10.73,0.172 -13.5,-5.5 -1.06,-17.786 -3.9,-35.286 -8.5,-52.5 0.23,-4.375 2.23,-7.542 6,-9.5 z"
       id="path50" />
  </g>
  <g
     id="g56"
     transform="translate(-360.43736,-335.43736)">
    <path
       style="opacity:1"
       fill="#fbfbfb"
       d="m 720.5,654.5 c 16.017,-0.914 26.85,6.086 32.5,21 2.271,17.303 -4.895,28.469 -21.5,33.5 -23.83,0.164 -34.33,-11.67 -31.5,-35.5 3.841,-9.678 10.674,-16.012 20.5,-19 z"
       id="path54" />
  </g>
  <g
     id="g60"
     transform="translate(-360.43736,-335.43736)">
    <path
       style="opacity:1"
       fill="#080b0b"
       d="m 721.5,667.5 c 8.414,-1.48 14.581,1.52 18.5,9 2.167,15.167 -4.333,21.667 -19.5,19.5 -8.857,-5.571 -11.024,-13.071 -6.5,-22.5 2.114,-2.621 4.614,-4.621 7.5,-6 z"
       id="path58" />
  </g>
  <g
     id="g64"
     transform="translate(-360.43736,-335.43736)">
    <path
       style="opacity:0.936"
       fill="#fad30a"
       d="m 415.5,671.5 c 5.035,-0.998 9.202,0.335 12.5,4 0.721,11.363 0.388,22.696 -1,34 -3.854,4.171 -8.354,5.004 -13.5,2.5 -1.201,-0.903 -2.035,-2.069 -2.5,-3.5 -0.776,-10.702 -0.443,-21.369 1,-32 0.997,-1.823 2.164,-3.49 3.5,-5 z"
       id="path62" />
  </g>
  <g
     id="g68"
     transform="translate(-360.43736,-335.43736)">
    <path
       style="opacity:0.93"
       fill="#0e5782"
       d="m 1139.5,716.5 c 8.79,-0.378 12.45,3.788 11,12.5 -0.47,8.204 -1.3,16.371 -2.5,24.5 -3.91,6.394 -8.91,7.394 -15,3 -1.03,-2.088 -1.86,-4.255 -2.5,-6.5 1.25,-9.482 2.42,-18.982 3.5,-28.5 1.11,-2.613 2.94,-4.28 5.5,-5 z"
       id="path66" />
  </g>
  <g
     id="g72"
     transform="translate(-360.43736,-335.43736)">
    <path
       style="opacity:0.866"
       fill="#fad30a"
       d="m 1066.5,743.5 c 10.03,3.515 19.7,7.848 29,13 -8.95,1.707 -17.95,3.04 -27,4 -0.34,-5.708 -1.01,-11.375 -2,-17 z"
       id="path70" />
  </g>
  <g
     id="g76"
     transform="translate(-360.43736,-335.43736)">
    <path
       style="opacity:0.941"
       fill="#fad30a"
       d="m 418.5,745.5 c 4.339,-0.654 8.173,0.346 11.5,3 2.883,18.199 6.716,36.199 11.5,54 -2.407,7.94 -7.407,10.107 -15,6.5 -2.324,-3.099 -3.824,-6.599 -4.5,-10.5 -3.641,-14.677 -6.474,-29.511 -8.5,-44.5 0.105,-3.879 1.772,-6.712 5,-8.5 z"
       id="path74" />
  </g>
  <g
     id="g80"
     transform="translate(-360.43736,-335.43736)">
    <path
       style="opacity:0.93"
       fill="#fad30a"
       d="m 1052.5,745.5 c 1.64,-0.214 3.14,0.12 4.5,1 0.94,5.327 1.78,10.66 2.5,16 -12.62,1.852 -25.12,4.186 -37.5,7 -1.87,-5.514 -3.04,-11.18 -3.5,-17 11.55,-1.844 22.89,-4.177 34,-7 z"
       id="path78" />
  </g>
  <g
     id="g84"
     transform="translate(-360.43736,-335.43736)">
    <path
       style="opacity:0.925"
       fill="#fad30a"
       d="m 1003.5,755.5 c 1.67,0 3.33,0 5,0 0.92,4.504 1.92,9.004 3,13.5 -0.33,0.833 -0.67,1.667 -1,2.5 -11.705,2.843 -23.371,5.843 -35,9 -2.12,-4.798 -3.787,-9.798 -5,-15 0.333,-0.333 0.667,-0.667 1,-1 10.867,-2.713 21.534,-5.713 32,-9 z"
       id="path82" />
  </g>
  <g
     id="g88"
     transform="translate(-360.43736,-335.43736)">
    <path
       style="opacity:0.915"
       fill="#fad30a"
       d="m 958.5,767.5 c 3.328,4.627 5.328,9.96 6,16 -11.994,3.165 -23.827,6.831 -35.5,11 -1.5,-4.5 -3,-9 -4.5,-13.5 0.145,-0.772 0.478,-1.439 1,-2 11.211,-3.569 22.211,-7.402 33,-11.5 z"
       id="path86" />
  </g>
  <g
     id="g92"
     transform="translate(-360.43736,-335.43736)">
    <path
       style="opacity:0.909"
       fill="#fad30a"
       d="m 910.5,784.5 c 1.175,-0.219 2.175,0.114 3,1 1.667,4 3.333,8 5,12 -11.249,5.021 -22.582,9.521 -34,13.5 -2.258,-3.992 -3.758,-8.159 -4.5,-12.5 10.302,-4.571 20.468,-9.237 30.5,-14 z"
       id="path90" />
  </g>
  <g
     id="g96"
     transform="translate(-360.43736,-335.43736)">
    <path
       style="opacity:0.897"
       fill="#fad30a"
       d="m 864.5,805.5 c 1.322,-0.17 2.489,0.163 3.5,1 1.579,3.494 3.413,6.827 5.5,10 -10.2,5.767 -20.533,10.933 -31,15.5 -2,-3 -4,-6 -6,-9 9.24,-6.092 18.574,-11.926 28,-17.5 z"
       id="path94" />
  </g>
  <g
     id="g100"
     transform="translate(-360.43736,-335.43736)">
    <path
       style="opacity:0.969"
       fill="#0e5682"
       d="m 932.5,805.5 c 12.891,-2.203 23.725,1.463 32.5,11 9.507,15.775 7.341,29.942 -6.5,42.5 -16.2,8.824 -30.7,6.658 -43.5,-6.5 -10.905,-22.155 -5.071,-37.822 17.5,-47 z"
       id="path98" />
  </g>
  <g
     id="g104"
     transform="translate(-360.43736,-335.43736)">
    <path
       style="opacity:0.874"
       fill="#fad30a"
       d="m 822.5,831.5 c 1.517,0.011 2.684,0.677 3.5,2 1.377,2.254 2.877,4.42 4.5,6.5 -8,6 -16,12 -24,18 -1.444,0.781 -2.777,0.614 -4,-0.5 -0.98,-1.481 -2.147,-2.815 -3.5,-4 -0.667,-1 -0.667,-2 0,-3 8.178,-5.993 16.011,-12.326 23.5,-19 z"
       id="path102" />
  </g>
  <g
     id="g108"
     transform="translate(-360.43736,-335.43736)">
    <path
       style="opacity:0.984"
       fill="#0e5682"
       d="m 1047.5,831.5 c 1,16.158 1.33,32.491 1,49 11.33,0 22.67,0 34,0 0,13.667 0,27.333 0,41 -11.33,0 -22.67,0 -34,0 -0.17,13.337 0,26.671 0.5,40 0.05,6.943 3.22,11.776 9.5,14.5 8.1,0.827 16.1,0.327 24,-1.5 0,14.333 0,28.67 0,43 -14.76,4.34 -29.76,5.51 -45,3.5 -23.75,-4.41 -37.25,-18.58 -40.5,-42.5 -0.5,-18.997 -0.667,-37.997 -0.5,-57 -5.333,0 -10.667,0 -16,0 0,-13.667 0,-27.333 0,-41 5.333,0 10.667,0 16,0 -0.316,-8.252 0.018,-16.419 1,-24.5 16.88,-7.941 33.55,-16.108 50,-24.5 z"
       id="path106" />
  </g>
  <g
     id="g112"
     transform="translate(-360.43736,-335.43736)">
    <path
       style="opacity:0.934"
       fill="#fad30a"
       d="m 444.5,839.5 c 4.539,-0.543 8.373,0.79 11.5,4 7.533,16.566 15.699,32.733 24.5,48.5 -1.532,7.774 -6.198,10.44 -14,8 -10.711,-14.919 -19.211,-31.085 -25.5,-48.5 -1.255,-4.762 -0.088,-8.762 3.5,-12 z"
       id="path110" />
  </g>
  <g
     id="g116"
     transform="translate(-360.43736,-335.43736)">
    <path
       style="opacity:0.858"
       fill="#fad30a"
       d="m 784.5,864.5 c 2.895,1.702 4.728,4.036 5.5,7 -6.532,6.198 -12.699,12.698 -18.5,19.5 -2.42,-0.372 -4.42,-1.705 -6,-4 6.168,-7.666 12.502,-15.166 19,-22.5 z"
       id="path114" />
  </g>
  <g
     id="g120"
     transform="translate(-360.43736,-335.43736)">
    <path
       style="opacity:0.975"
       fill="#0e5682"
       d="m 1156.5,875.5 c 47.33,-1.173 74.33,21.66 81,68.5 -0.41,0.945 -1.07,1.612 -2,2 -31.07,9.802 -62.07,19.802 -93,30 3.56,3.888 7.89,6.554 13,8 13.44,2.889 26.44,1.556 39,-4 8.07,-4.24 15.73,-9.074 23,-14.5 5.13,12.095 10.13,24.261 15,36.5 -33.35,24.79 -69.01,28.79 -107,12 -34.39,-23.518 -44.56,-55.018 -30.5,-94.5 12.72,-25.604 33.22,-40.271 61.5,-44 z m 6,38 c 10.51,-0.246 19.17,3.587 26,11.5 -17.92,6.251 -35.92,12.418 -54,18.5 1.97,-16.646 11.31,-26.646 28,-30 z"
       id="path118" />
  </g>
  <g
     id="g124"
     transform="translate(-360.43736,-335.43736)">
    <path
       style="opacity:0.973"
       fill="#0e5682"
       d="m 959.5,877.5 c 2.333,0 4.667,0 7,0 0,47.333 0,94.667 0,142 -17.667,0 -35.333,0 -53,0 0,-45.667 0,-91.333 0,-137 15.531,-1.152 30.864,-2.819 46,-5 z"
       id="path122" />
  </g>
  <g
     id="g128"
     transform="translate(-360.43736,-335.43736)">
    <path
       style="opacity:0.758"
       fill="#fad30a"
       d="m 752.5,905.5 c 2.214,-0.209 3.881,0.624 5,2.5 -2.116,4.399 -4.616,8.566 -7.5,12.5 -1.255,-0.711 -2.421,-1.544 -3.5,-2.5 2.412,-3.99 4.412,-8.157 6,-12.5 z"
       id="path126" />
  </g>
  <g
     id="g132"
     transform="translate(-360.43736,-335.43736)">
    <path
       style="opacity:0.933"
       fill="#fad30a"
       d="m 497.5,923.5 c 2.549,-0.113 4.882,0.554 7,2 10.916,13.42 22.75,26.087 35.5,38 2.801,7.272 0.468,11.938 -7,14 -2.321,-0.409 -4.487,-1.243 -6.5,-2.5 -12.231,-11.562 -23.731,-23.729 -34.5,-36.5 -3.171,-6.971 -1.338,-11.971 5.5,-15 z"
       id="path130" />
  </g>
  <g
     id="g136"
     transform="translate(-360.43736,-335.43736)">
    <path
       style="opacity:0.936"
       fill="#fad30a"
       d="m 565.5,991.5 c 3.018,-0.165 6.018,0.002 9,0.5 14.333,9.5 28.999,18.5 44,27 4.506,12.83 0.173,17.16 -13,13 -15.31,-7.56 -29.477,-16.73 -42.5,-27.5 -2.169,-4.977 -1.336,-9.311 2.5,-13 z"
       id="path134" />
  </g>
  <g
     id="g140"
     transform="translate(-360.43736,-335.43736)">
    <path
       style="opacity:0.935"
       fill="#fad30a"
       d="m 655.5,1036.5 c 17.767,5.53 35.767,10.36 54,14.5 5.184,5.29 5.184,10.63 0,16 -1.229,0.78 -2.562,1.28 -4,1.5 -17.219,-4.05 -34.219,-8.89 -51,-14.5 -4.919,-2.74 -6.752,-6.91 -5.5,-12.5 1.805,-2.33 3.972,-3.99 6.5,-5 z"
       id="path138" />
  </g>
  <g
     id="g144"
     transform="translate(-360.43736,-335.43736)">
    <path
       style="opacity:0.928"
       fill="#fad30a"
       d="m 873.5,1045.5 c 7.972,0.14 11.472,4.14 10.5,12 -0.785,1.79 -1.951,3.29 -3.5,4.5 -11.002,4.07 -22.336,6.07 -34,6 -4.866,-4.72 -5.199,-9.72 -1,-15 9.488,-2.32 18.822,-4.82 28,-7.5 z"
       id="path142" />
  </g>
  <g
     id="g148"
     transform="translate(-360.43736,-335.43736)">
    <path
       style="opacity:0.952"
       fill="#fad30a"
       d="m 749.5,1057.5 c 18.027,0.5 36.027,0.5 54,0 5.237,1.24 7.903,4.57 8,10 -0.906,4.41 -3.573,6.91 -8,7.5 -17,0.67 -34,0.67 -51,0 -9.401,-4.43 -10.401,-10.27 -3,-17.5 z"
       id="path146" />
  </g>
</svg>
